ffmpeg started on 2025-06-04 at 19:40:45
Report written to "D:\Convert\FFMetrics\reports\psnr_report-6.txt"
Log level: 32
Command line:
ffmpeg -hide_banner -nostdin -i "G:\\\xc0\xed\xe8\xec\xe5\\\xce\xed\xe3\xee\xe8\xed\xe3\xe8\\!_36_\xce\xf1\xe5\xed\xfc_2024\\DreamCast\\\xc2\xfb \xef\xf0\xe0\xe2\xe4\xe0 \xe6\xe5\xed\xe8\xf2\xe5\xf1\xfc\\[DC] Kekkon Surutte Hontou Desuka - 10_Telegram_HEVC.mkv" -i "G:\\\xc0\xed\xe8\xec\xe5\\\xce\xed\xe3\xee\xe8\xed\xe3\xe8\\!_36_\xce\xf1\xe5\xed\xfc_2024\\DreamCast\\\xc2\xfb \xef\xf0\xe0\xe2\xe4\xe0 \xe6\xe5\xed\xe8\xf2\xe5\xf1\xfc\\[DC] Kekkon Surutte Hontou Desuka - 10_Telegram.mp4" -lavfi "[0:v]settb=AVTB,setpts=PTS-STARTPTS,format=pix_fmts=yuv420p10,fps=24000/1001,scale=1920:1080:flags=bicubic[main];[1:v]settb=AVTB,setpts=PTS-STARTPTS,format=pix_fmts=yuv420p,fps=24000/1001,scale=1920:1080:flags=bicubic[ref];[main][ref]psnr=eof_action=endall:stats_file='D\\:/Convert/FFMetrics/logs/psnr_logfile-6.txt'" -f null -
Input #0, matroska,webm, from 'G:\Аниме\Онгоинги\!_36_Осень_2024\DreamCast\Вы правда женитесь\[DC] Kekkon Surutte Hontou Desuka - 10_Telegram_HEVC.mkv':
  Metadata:
    COMPATIBLE_BRANDS: isomiso2avc1mp41
    MAJOR_BRAND     : isom
    MINOR_VERSION   : 512
    ENCODER         : Lavf61.7.100
  Duration: 00:23:47.67, start: -0.021000, bitrate: 1642 kb/s
  Stream #0:0: Video: hevc (Main 10), yuv420p10le(tv, bt709, progressive), 1920x1080 [SAR 1:1 DAR 16:9], 23.98 fps, 23.98 tbr, 1k tbn (default)
      Metadata:
        HANDLER_NAME    : VideoHandler
        VENDOR_ID       : [0][0][0][0]
        ENCODER         : Lavc61.19.100 libx265
        BPS             : 1445768
        DURATION        : 00:23:46.508708333
        NUMBER_OF_FRAMES: 34202
        NUMBER_OF_BYTES : 257800002
        _STATISTICS_WRITING_APP: mkvpropedit v66.0.0 ('Josie') 64-bit
        _STATISTICS_WRITING_DATE_UTC: 2025-05-30 08:57:56
        _STATISTICS_TAGS: BPS DURATION NUMBER_OF_FRAMES NUMBER_OF_BYTES
  Stream #0:1: Audio: aac (LC), 48000 Hz, stereo, fltp (default)
      Metadata:
        HANDLER_NAME    : SoundHandler
        VENDOR_ID       : [0][0][0][0]
        ENCODER         : Lavc61.19.100 aac
        BPS             : 193324
        DURATION        : 00:23:47.669000000
        NUMBER_OF_FRAMES: 66923
        NUMBER_OF_BYTES : 34500465
        _STATISTICS_WRITING_APP: mkvpropedit v66.0.0 ('Josie') 64-bit
        _STATISTICS_WRITING_DATE_UTC: 2025-05-30 08:57:56
        _STATISTICS_TAGS: BPS DURATION NUMBER_OF_FRAMES NUMBER_OF_BYTES
Input #1, mov,mp4,m4a,3gp,3g2,mj2, from 'G:\Аниме\Онгоинги\!_36_Осень_2024\DreamCast\Вы правда женитесь\[DC] Kekkon Surutte Hontou Desuka - 10_Telegram.mp4':
  Metadata:
    major_brand     : isom
    minor_version   : 512
    compatible_brands: isomiso2avc1mp41
    encoder         : Lavf61.1.100
  Duration: 00:23:47.63, start: 0.000000, bitrate: 3926 kb/s
  Stream #1:0[0x1](und): Video: h264 (High) (avc1 / 0x31637661), yuv420p(tv, bt709, progressive), 1920x1080 [SAR 1:1 DAR 16:9], 3781 kb/s, 23.98 fps, 23.98 tbr, 24k tbn (default)
      Metadata:
        handler_name    : VideoHandler
        vendor_id       : [0][0][0][0]
        encoder         : Lavc61.3.100 h264_qsv
  Stream #1:1[0x2](und): Audio: aac (HE-AACv2) (mp4a / 0x6134706D), 48000 Hz, stereo, fltp, 144 kb/s (default)
      Metadata:
        handler_name    : SoundHandler
        vendor_id       : [0][0][0][0]
Stream mapping:
  Stream #0:0 (hevc) -> settb:default
  Stream #1:0 (h264) -> settb:default
  psnr:default -> Stream #0:0 (wrapped_avframe)
  Stream #0:1 -> #0:1 (aac (native) -> pcm_s16le (native))
Output #0, null, to 'pipe:':
  Metadata:
    COMPATIBLE_BRANDS: isomiso2avc1mp41
    MAJOR_BRAND     : isom
    MINOR_VERSION   : 512
    encoder         : Lavf61.7.100
  Stream #0:0: Video: wrapped_avframe, yuv420p10le(tv, bt709, progressive), 1920x1080 [SAR 1:1 DAR 16:9], q=2-31, 200 kb/s, 23.98 fps, 23.98 tbn
      Metadata:
        encoder         : Lavc61.19.100 wrapped_avframe
  Stream #0:1: Audio: pcm_s16le, 48000 Hz, stereo, s16, 1536 kb/s (default)
      Metadata:
        HANDLER_NAME    : SoundHandler
        VENDOR_ID       : [0][0][0][0]
        _STATISTICS_TAGS: BPS DURATION NUMBER_OF_FRAMES NUMBER_OF_BYTES
        BPS             : 193324
        DURATION        : 00:23:47.669000000
        NUMBER_OF_FRAMES: 66923
        NUMBER_OF_BYTES : 34500465
        _STATISTICS_WRITING_APP: mkvpropedit v66.0.0 ('Josie') 64-bit
        _STATISTICS_WRITING_DATE_UTC: 2025-05-30 08:57:56
        encoder         : Lavc61.19.100 pcm_s16le
frame=  166 fps=0.0 q=-0.0 size=N/A time=00:00:06.88 bitrate=N/A speed=13.4x    frame=  413 fps=398 q=-0.0 size=N/A time=00:00:17.22 bitrate=N/A speed=16.6x    frame=  631 fps=405 q=-0.0 size=N/A time=00:00:26.31 bitrate=N/A speed=16.9x    frame=  878 fps=426 q=-0.0 size=N/A time=00:00:36.61 bitrate=N/A speed=17.7x    frame= 1077 fps=417 q=-0.0 size=N/A time=00:00:44.91 bitrate=N/A speed=17.4x    frame= 1314 fps=425 q=-0.0 size=N/A time=00:00:54.80 bitrate=N/A speed=17.7x    frame= 1553 fps=429 q=-0.0 size=N/A time=00:01:04.77 bitrate=N/A speed=17.9x    frame= 1758 fps=426 q=-0.0 size=N/A time=00:01:13.32 bitrate=N/A speed=17.8x    frame= 2021 fps=435 q=-0.0 size=N/A time=00:01:24.29 bitrate=N/A speed=18.1x    frame= 2276 fps=440 q=-0.0 size=N/A time=00:01:34.92 bitrate=N/A speed=18.4x    frame= 2516 fps=442 q=-0.0 size=N/A time=00:01:44.93 bitrate=N/A speed=18.5x    frame= 2746 fps=442 q=-0.0 size=N/A time=00:01:54.53 bitrate=N/A speed=18.4x    frame= 2964 fps=441 q=-0.0 size=N/A time=00:02:03.62 bitrate=N/A speed=18.4x    frame= 3203 fps=442 q=-0.0 size=N/A time=00:02:13.59 bitrate=N/A speed=18.4x    frame= 3383 fps=436 q=-0.0 size=N/A time=00:02:21.09 bitrate=N/A speed=18.2x    frame= 3585 fps=433 q=-0.0 size=N/A time=00:02:29.52 bitrate=N/A speed=18.1x    frame= 3776 fps=430 q=-0.0 size=N/A time=00:02:37.49 bitrate=N/A speed=17.9x    frame= 4001 fps=430 q=-0.0 size=N/A time=00:02:46.87 bitrate=N/A speed=17.9x    frame= 4236 fps=432 q=-0.0 size=N/A time=00:02:56.67 bitrate=N/A speed=  18x    frame= 4472 fps=433 q=-0.0 size=N/A time=00:03:06.51 bitrate=N/A speed=  18x    frame= 4687 fps=432 q=-0.0 size=N/A time=00:03:15.48 bitrate=N/A speed=  18x    frame= 4894 fps=431 q=-0.0 size=N/A time=00:03:24.12 bitrate=N/A speed=  18x    frame= 5101 fps=430 q=-0.0 size=N/A time=00:03:32.75 bitrate=N/A speed=17.9x    frame= 5328 fps=430 q=-0.0 size=N/A time=00:03:42.22 bitrate=N/A speed=17.9x    frame= 5574 fps=431 q=-0.0 size=N/A time=00:03:52.48 bitrate=N/A speed=  18x    frame= 5785 fps=430 q=-0.0 size=N/A time=00:04:01.28 bitrate=N/A speed=  18x    frame= 5981 fps=428 q=-0.0 size=N/A time=00:04:09.45 bitrate=N/A speed=17.9x    frame= 6158 fps=425 q=-0.0 size=N/A time=00:04:16.83 bitrate=N/A speed=17.7x    frame= 6392 fps=426 q=-0.0 size=N/A time=00:04:26.59 bitrate=N/A speed=17.8x    frame= 6586 fps=424 q=-0.0 size=N/A time=00:04:34.69 bitrate=N/A speed=17.7x    frame= 6773 fps=422 q=-0.0 size=N/A time=00:04:42.49 bitrate=N/A speed=17.6x    frame= 6984 fps=422 q=-0.0 size=N/A time=00:04:51.29 bitrate=N/A speed=17.6x    frame= 7217 fps=423 q=-0.0 size=N/A time=00:05:01.00 bitrate=N/A speed=17.6x    frame= 7434 fps=423 q=-0.0 size=N/A time=00:05:10.05 bitrate=N/A speed=17.6x    frame= 7654 fps=423 q=-0.0 size=N/A time=00:05:19.23 bitrate=N/A speed=17.6x    frame= 7854 fps=422 q=-0.0 size=N/A time=00:05:27.57 bitrate=N/A speed=17.6x    frame= 8045 fps=421 q=-0.0 size=N/A time=00:05:35.54 bitrate=N/A speed=17.5x    frame= 8235 fps=419 q=-0.0 size=N/A time=00:05:43.46 bitrate=N/A speed=17.5x    frame= 8466 fps=420 q=-0.0 size=N/A time=00:05:53.10 bitrate=N/A speed=17.5x    frame= 8673 fps=419 q=-0.0 size=N/A time=00:06:01.73 bitrate=N/A speed=17.5x    frame= 8939 fps=422 q=-0.0 size=N/A time=00:06:12.83 bitrate=N/A speed=17.6x    frame= 9143 fps=421 q=-0.0 size=N/A time=00:06:21.33 bitrate=N/A speed=17.6x    frame= 9393 fps=423 q=-0.0 size=N/A time=00:06:31.76 bitrate=N/A speed=17.6x    frame= 9589 fps=422 q=-0.0 size=N/A time=00:06:39.94 bitrate=N/A speed=17.6x    frame= 9742 fps=419 q=-0.0 size=N/A time=00:06:46.32 bitrate=N/A speed=17.5x    frame= 9897 fps=416 q=-0.0 size=N/A time=00:06:52.78 bitrate=N/A speed=17.4x    frame=10171 fps=419 q=-0.0 size=N/A time=00:07:04.21 bitrate=N/A speed=17.5x    frame=10361 fps=418 q=-0.0 size=N/A time=00:07:12.14 bitrate=N/A speed=17.4x    frame=10598 fps=419 q=-0.0 size=N/A time=00:07:22.02 bitrate=N/A speed=17.5x    frame=10839 fps=420 q=-0.0 size=N/A time=00:07:32.07 bitrate=N/A speed=17.5x    frame=11059 fps=420 q=-0.0 size=N/A time=00:07:41.25 bitrate=N/A speed=17.5x    frame=11227 fps=418 q=-0.0 size=N/A time=00:07:48.25 bitrate=N/A speed=17.4x    frame=11401 fps=416 q=-0.0 size=N/A time=00:07:55.51 bitrate=N/A speed=17.4x    frame=11588 fps=415 q=-0.0 size=N/A time=00:08:03.31 bitrate=N/A speed=17.3x    frame=11799 fps=415 q=-0.0 size=N/A time=00:08:12.11 bitrate=N/A speed=17.3x    frame=12015 fps=415 q=-0.0 size=N/A time=00:08:21.12 bitrate=N/A speed=17.3x    frame=12230 fps=415 q=-0.0 size=N/A time=00:08:30.09 bitrate=N/A speed=17.3x    frame=12432 fps=415 q=-0.0 size=N/A time=00:08:38.51 bitrate=N/A speed=17.3x    frame=12642 fps=415 q=-0.0 size=N/A time=00:08:47.27 bitrate=N/A speed=17.3x    frame=12854 fps=415 q=-0.0 size=N/A time=00:08:56.11 bitrate=N/A speed=17.3x    frame=13030 fps=414 q=-0.0 size=N/A time=00:09:03.45 bitrate=N/A speed=17.2x    frame=13217 fps=413 q=-0.0 size=N/A time=00:09:11.25 bitrate=N/A speed=17.2x    frame=13444 fps=413 q=-0.0 size=N/A time=00:09:20.72 bitrate=N/A speed=17.2x    frame=13631 fps=412 q=-0.0 size=N/A time=00:09:28.52 bitrate=N/A speed=17.2x    frame=13862 fps=413 q=-0.0 size=N/A time=00:09:38.16 bitrate=N/A speed=17.2x    frame=14080 fps=413 q=-0.0 size=N/A time=00:09:47.25 bitrate=N/A speed=17.2x    frame=14315 fps=414 q=-0.0 size=N/A time=00:09:57.05 bitrate=N/A speed=17.3x    frame=14508 fps=413 q=-0.0 size=N/A time=00:10:05.10 bitrate=N/A speed=17.2x    frame=14696 fps=413 q=-0.0 size=N/A time=00:10:12.94 bitrate=N/A speed=17.2x    frame=14865 fps=411 q=-0.0 size=N/A time=00:10:19.99 bitrate=N/A speed=17.1x    frame=15081 fps=411 q=-0.0 size=N/A time=00:10:29.00 bitrate=N/A speed=17.2x    frame=15269 fps=411 q=-0.0 size=N/A time=00:10:36.84 bitrate=N/A speed=17.1x    frame=15464 fps=410 q=-0.0 size=N/A time=00:10:44.97 bitrate=N/A speed=17.1x    frame=15649 fps=410 q=-0.0 size=N/A time=00:10:52.69 bitrate=N/A speed=17.1x    frame=15863 fps=410 q=-0.0 size=N/A time=00:11:01.61 bitrate=N/A speed=17.1x    frame=16039 fps=409 q=-0.0 size=N/A time=00:11:08.95 bitrate=N/A speed=  17x    frame=16213 fps=408 q=-0.0 size=N/A time=00:11:16.21 bitrate=N/A speed=  17x    frame=16399 fps=407 q=-0.0 size=N/A time=00:11:23.97 bitrate=N/A speed=  17x    frame=16622 fps=407 q=-0.0 size=N/A time=00:11:33.27 bitrate=N/A speed=  17x    frame=16811 fps=407 q=-0.0 size=N/A time=00:11:41.15 bitrate=N/A speed=  17x    frame=17018 fps=407 q=-0.0 size=N/A time=00:11:49.79 bitrate=N/A speed=  17x    frame=17264 fps=408 q=-0.0 size=N/A time=00:12:00.05 bitrate=N/A speed=  17x    frame=17502 fps=408 q=-0.0 size=N/A time=00:12:09.97 bitrate=N/A speed=  17x    frame=17738 fps=409 q=-0.0 size=N/A time=00:12:19.82 bitrate=N/A speed=17.1x    frame=17979 fps=410 q=-0.0 size=N/A time=00:12:29.87 bitrate=N/A speed=17.1x    frame=18202 fps=410 q=-0.0 size=N/A time=00:12:39.17 bitrate=N/A speed=17.1x    frame=18425 fps=410 q=-0.0 size=N/A time=00:12:48.47 bitrate=N/A speed=17.1x    frame=18636 fps=410 q=-0.0 size=N/A time=00:12:57.27 bitrate=N/A speed=17.1x    frame=18872 fps=411 q=-0.0 size=N/A time=00:13:07.11 bitrate=N/A speed=17.1x    frame=19112 fps=411 q=-0.0 size=N/A time=00:13:17.12 bitrate=N/A speed=17.2x    frame=19307 fps=411 q=-0.0 size=N/A time=00:13:25.26 bitrate=N/A speed=17.1x    frame=19499 fps=411 q=-0.0 size=N/A time=00:13:33.27 bitrate=N/A speed=17.1x    frame=19701 fps=410 q=-0.0 size=N/A time=00:13:41.69 bitrate=N/A speed=17.1x    frame=19944 fps=411 q=-0.0 size=N/A time=00:13:51.83 bitrate=N/A speed=17.1x    frame=20170 fps=411 q=-0.0 size=N/A time=00:14:01.25 bitrate=N/A speed=17.2x    frame=20341 fps=411 q=-0.0 size=N/A time=00:14:08.38 bitrate=N/A speed=17.1x    frame=20567 fps=411 q=-0.0 size=N/A time=00:14:17.81 bitrate=N/A speed=17.1x    frame=20792 fps=411 q=-0.0 size=N/A time=00:14:27.19 bitrate=N/A speed=17.1x    frame=21007 fps=411 q=-0.0 size=N/A time=00:14:36.16 bitrate=N/A speed=17.1x    frame=21233 fps=411 q=-0.0 size=N/A time=00:14:45.59 bitrate=N/A speed=17.2x    frame=21463 fps=412 q=-0.0 size=N/A time=00:14:55.18 bitrate=N/A speed=17.2x    frame=21681 fps=412 q=-0.0 size=N/A time=00:15:04.27 bitrate=N/A speed=17.2x    frame=21906 fps=412 q=-0.0 size=N/A time=00:15:13.66 bitrate=N/A speed=17.2x    frame=22129 fps=412 q=-0.0 size=N/A time=00:15:22.96 bitrate=N/A speed=17.2x    frame=22329 fps=412 q=-0.0 size=N/A time=00:15:31.30 bitrate=N/A speed=17.2x    frame=22570 fps=413 q=-0.0 size=N/A time=00:15:41.35 bitrate=N/A speed=17.2x    frame=22800 fps=413 q=-0.0 size=N/A time=00:15:50.95 bitrate=N/A speed=17.2x    frame=23022 fps=413 q=-0.0 size=N/A time=00:16:00.20 bitrate=N/A speed=17.2x    frame=23207 fps=412 q=-0.0 size=N/A time=00:16:07.92 bitrate=N/A speed=17.2x    frame=23455 fps=413 q=-0.0 size=N/A time=00:16:18.26 bitrate=N/A speed=17.2x    frame=23665 fps=413 q=-0.0 size=N/A time=00:16:27.02 bitrate=N/A speed=17.2x    frame=23879 fps=413 q=-0.0 size=N/A time=00:16:35.95 bitrate=N/A speed=17.2x    frame=24058 fps=413 q=-0.0 size=N/A time=00:16:43.41 bitrate=N/A speed=17.2x    frame=24273 fps=413 q=-0.0 size=N/A time=00:16:52.38 bitrate=N/A speed=17.2x    frame=24500 fps=413 q=-0.0 size=N/A time=00:17:01.85 bitrate=N/A speed=17.2x    frame=24755 fps=414 q=-0.0 size=N/A time=00:17:12.48 bitrate=N/A speed=17.2x    frame=25023 fps=414 q=-0.0 size=N/A time=00:17:23.66 bitrate=N/A speed=17.3x    frame=25269 fps=415 q=-0.0 size=N/A time=00:17:33.92 bitrate=N/A speed=17.3x    frame=25520 fps=416 q=-0.0 size=N/A time=00:17:44.39 bitrate=N/A speed=17.3x    frame=25799 fps=417 q=-0.0 size=N/A time=00:17:56.03 bitrate=N/A speed=17.4x    frame=26064 fps=417 q=-0.0 size=N/A time=00:18:07.08 bitrate=N/A speed=17.4x    frame=26340 fps=418 q=-0.0 size=N/A time=00:18:18.59 bitrate=N/A speed=17.4x    frame=26609 fps=419 q=-0.0 size=N/A time=00:18:29.81 bitrate=N/A speed=17.5x    frame=26850 fps=420 q=-0.0 size=N/A time=00:18:39.86 bitrate=N/A speed=17.5x    frame=27055 fps=419 q=-0.0 size=N/A time=00:18:48.41 bitrate=N/A speed=17.5x    frame=27279 fps=420 q=-0.0 size=N/A time=00:18:57.76 bitrate=N/A speed=17.5x    frame=27499 fps=420 q=-0.0 size=N/A time=00:19:06.93 bitrate=N/A speed=17.5x    frame=27753 fps=420 q=-0.0 size=N/A time=00:19:17.53 bitrate=N/A speed=17.5x    frame=27986 fps=420 q=-0.0 size=N/A time=00:19:27.24 bitrate=N/A speed=17.5x    frame=28204 fps=420 q=-0.0 size=N/A time=00:19:36.34 bitrate=N/A speed=17.5x    frame=28412 fps=420 q=-0.0 size=N/A time=00:19:45.01 bitrate=N/A speed=17.5x    frame=28647 fps=420 q=-0.0 size=N/A time=00:19:54.81 bitrate=N/A speed=17.5x    frame=28892 fps=421 q=-0.0 size=N/A time=00:20:05.03 bitrate=N/A speed=17.6x    frame=29154 fps=422 q=-0.0 size=N/A time=00:20:15.96 bitrate=N/A speed=17.6x    frame=29413 fps=422 q=-0.0 size=N/A time=00:20:26.76 bitrate=N/A speed=17.6x    frame=29676 fps=423 q=-0.0 size=N/A time=00:20:37.73 bitrate=N/A speed=17.6x    frame=29879 fps=423 q=-0.0 size=N/A time=00:20:46.20 bitrate=N/A speed=17.6x    frame=30081 fps=422 q=-0.0 size=N/A time=00:20:54.62 bitrate=N/A speed=17.6x    frame=30321 fps=423 q=-0.0 size=N/A time=00:21:04.63 bitrate=N/A speed=17.6x    frame=30572 fps=423 q=-0.0 size=N/A time=00:21:15.10 bitrate=N/A speed=17.6x    frame=30820 fps=424 q=-0.0 size=N/A time=00:21:25.45 bitrate=N/A speed=17.7x    frame=31060 fps=424 q=-0.0 size=N/A time=00:21:35.46 bitrate=N/A speed=17.7x    frame=31265 fps=424 q=-0.0 size=N/A time=00:21:44.01 bitrate=N/A speed=17.7x    frame=31493 fps=424 q=-0.0 size=N/A time=00:21:53.52 bitrate=N/A speed=17.7x    frame=31751 fps=424 q=-0.0 size=N/A time=00:22:04.28 bitrate=N/A speed=17.7x    frame=31971 fps=424 q=-0.0 size=N/A time=00:22:13.45 bitrate=N/A speed=17.7x    frame=32146 fps=424 q=-0.0 size=N/A time=00:22:20.75 bitrate=N/A speed=17.7x    frame=32270 fps=423 q=-0.0 size=N/A time=00:22:25.92 bitrate=N/A speed=17.6x    frame=32486 fps=422 q=-0.0 size=N/A time=00:22:34.93 bitrate=N/A speed=17.6x    frame=32661 fps=422 q=-0.0 size=N/A time=00:22:42.23 bitrate=N/A speed=17.6x    frame=32824 fps=421 q=-0.0 size=N/A time=00:22:49.03 bitrate=N/A speed=17.6x    frame=32982 fps=420 q=-0.0 size=N/A time=00:22:55.62 bitrate=N/A speed=17.5x    frame=33145 fps=420 q=-0.0 size=N/A time=00:23:02.42 bitrate=N/A speed=17.5x    frame=33307 fps=419 q=-0.0 size=N/A time=00:23:09.17 bitrate=N/A speed=17.5x    frame=33502 fps=419 q=-0.0 size=N/A time=00:23:17.31 bitrate=N/A speed=17.5x    frame=33668 fps=418 q=-0.0 size=N/A time=00:23:24.23 bitrate=N/A speed=17.4x    frame=33835 fps=418 q=-0.0 size=N/A time=00:23:31.20 bitrate=N/A speed=17.4x    frame=34001 fps=417 q=-0.0 size=N/A time=00:23:38.12 bitrate=N/A speed=17.4x    [Parsed_psnr_10 @ 000001f0cd0dafc0] PSNR y:46.687764 u:49.723558 v:49.825838 average:47.494736 min:41.414292 max:inf
[out#0/null @ 000001f0c002f080] video:14696KiB audio:267692KiB subtitle:0KiB other streams:0KiB global headers:0KiB muxing overhead: unknown
frame=34202 fps=417 q=-0.0 Lsize=N/A time=00:23:46.50 bitrate=N/A speed=17.4x    
